<svg width="32" height="32" viewBox="0 0 32 32" fill="none" xmlns="http://www.w3.org/2000/svg">
  <rect width="32" height="32" rx="8" fill="white"/>
  <path d="M10 11.5C10 10.6716 10.6716 10 11.5 10H14C14.5523 10 15 10.4477 15 11V13.5C15 14.0523 14.5523 14.5 14 14.5H11.5C10.6716 14.5 10 13.8284 10 13V11.5Z" fill="#007AFF"/>
  <path d="M17 11C17 10.4477 17.4477 10 18 10H20.5C21.3284 10 22 10.6716 22 11.5V13C22 13.8284 21.3284 14.5 20.5 14.5H18C17.4477 14.5 17 14.0523 17 13.5V11Z" fill="#007AFF"/>
  <path d="M10 19C10 18.4477 10.4477 18 11 18H13.5C14.3284 18 15 18.6716 15 19.5V21C15 21.8284 14.3284 22 13.5 22H11C10.4477 22 10 21.5523 10 21V19Z" fill="#007AFF"/>
  <path d="M17 18.5C17 17.6716 17.6716 17 18.5 17H21C21.5523 17 22 17.4477 22 18V20.5C22 21.3284 21.3284 22 20.5 22H18C17.4477 22 17 21.5523 17 21V18.5Z" fill="#007AFF"/>
</svg>